<mxfile host="65bd71144e">
    <diagram id="t97jCLCTWrLr1Wu87Flo" name="ページ1">
        <mxGraphModel dx="554" dy="581" grid="1" gridSize="10" guides="1" tooltips="1" connect="1" arrows="1" fold="1" page="1" pageScale="1" pageWidth="827" pageHeight="1169" math="0" shadow="0">
            <root>
                <mxCell id="0"/>
                <mxCell id="1" parent="0"/>
                <mxCell id="2" style="edgeStyle=none;html=1;exitX=0.5;exitY=1;exitDx=0;exitDy=0;entryX=0.5;entryY=0;entryDx=0;entryDy=0;fontSize=14;" parent="1" source="3" target="5" edge="1">
                    <mxGeometry relative="1" as="geometry"/>
                </mxCell>
                <mxCell id="3" value="&lt;font style=&quot;font-size: 18px;&quot;&gt;開始&lt;/font&gt;" style="rounded=1;whiteSpace=wrap;html=1;" parent="1" vertex="1">
                    <mxGeometry x="120" y="40" width="120" height="60" as="geometry"/>
                </mxCell>
                <mxCell id="4" style="edgeStyle=none;html=1;exitX=0.5;exitY=1;exitDx=0;exitDy=0;entryX=0.5;entryY=0;entryDx=0;entryDy=0;fontSize=14;" parent="1" source="5" target="7" edge="1">
                    <mxGeometry relative="1" as="geometry"/>
                </mxCell>
                <mxCell id="5" value="初期化" style="rounded=0;whiteSpace=wrap;html=1;fontSize=18;" parent="1" vertex="1">
                    <mxGeometry x="120" y="150" width="120" height="60" as="geometry"/>
                </mxCell>
                <mxCell id="6" style="edgeStyle=none;html=1;exitX=0.5;exitY=1;exitDx=0;exitDy=0;entryX=0.5;entryY=0;entryDx=0;entryDy=0;fontSize=14;" parent="1" source="7" target="9" edge="1">
                    <mxGeometry relative="1" as="geometry"/>
                </mxCell>
                <mxCell id="7" value="fopen" style="rounded=0;whiteSpace=wrap;html=1;fontSize=18;" parent="1" vertex="1">
                    <mxGeometry x="120" y="260" width="120" height="60" as="geometry"/>
                </mxCell>
                <mxCell id="18" style="edgeStyle=none;html=1;exitX=0.5;exitY=1;exitDx=0;exitDy=0;" parent="1" source="9" edge="1">
                    <mxGeometry relative="1" as="geometry">
                        <mxPoint x="180" y="550" as="targetPoint"/>
                    </mxGeometry>
                </mxCell>
                <mxCell id="9" value="fscanf" style="rounded=0;whiteSpace=wrap;html=1;fontSize=18;" parent="1" vertex="1">
                    <mxGeometry x="120" y="440" width="120" height="60" as="geometry"/>
                </mxCell>
                <mxCell id="10" style="edgeStyle=none;html=1;exitX=0.5;exitY=1;exitDx=0;exitDy=0;entryX=0.5;entryY=0;entryDx=0;entryDy=0;fontSize=14;" parent="1" source="12" edge="1">
                    <mxGeometry relative="1" as="geometry">
                        <mxPoint x="180" y="930" as="targetPoint"/>
                    </mxGeometry>
                </mxCell>
                <mxCell id="11" style="edgeStyle=none;html=1;exitX=0;exitY=0.5;exitDx=0;exitDy=0;fontSize=14;" parent="1" source="12" edge="1">
                    <mxGeometry relative="1" as="geometry">
                        <Array as="points">
                            <mxPoint x="80" y="840"/>
                            <mxPoint x="80" y="690"/>
                            <mxPoint x="80" y="530"/>
                            <mxPoint x="80" y="360"/>
                        </Array>
                        <mxPoint x="180" y="360" as="targetPoint"/>
                    </mxGeometry>
                </mxCell>
                <mxCell id="12" value="科目の数" style="rhombus;whiteSpace=wrap;html=1;fontSize=14;" parent="1" vertex="1">
                    <mxGeometry x="140" y="800" width="80" height="80" as="geometry"/>
                </mxCell>
                <mxCell id="19" style="edgeStyle=none;html=1;exitX=0.5;exitY=1;exitDx=0;exitDy=0;entryX=0.5;entryY=0;entryDx=0;entryDy=0;" parent="1" source="13" target="16" edge="1">
                    <mxGeometry relative="1" as="geometry"/>
                </mxCell>
                <mxCell id="13" value="&lt;font style=&quot;font-size: 14px;&quot;&gt;合計と&lt;br&gt;二乗の合計を求める&lt;/font&gt;" style="rounded=0;whiteSpace=wrap;html=1;fontSize=18;" parent="1" vertex="1">
                    <mxGeometry x="120" y="554.5" width="120" height="60" as="geometry"/>
                </mxCell>
                <mxCell id="15" style="edgeStyle=none;html=1;exitX=0.5;exitY=1;exitDx=0;exitDy=0;entryX=0.5;entryY=0;entryDx=0;entryDy=0;fontSize=14;" parent="1" source="16" edge="1">
                    <mxGeometry relative="1" as="geometry">
                        <mxPoint x="180" y="800" as="targetPoint"/>
                    </mxGeometry>
                </mxCell>
                <mxCell id="17" style="edgeStyle=none;html=1;exitX=0;exitY=0.5;exitDx=0;exitDy=0;" parent="1" source="16" edge="1">
                    <mxGeometry relative="1" as="geometry">
                        <mxPoint x="180" y="400" as="targetPoint"/>
                        <Array as="points">
                            <mxPoint x="100" y="710"/>
                            <mxPoint x="100" y="400"/>
                        </Array>
                    </mxGeometry>
                </mxCell>
                <mxCell id="16" value="生徒の数" style="rhombus;whiteSpace=wrap;html=1;fontSize=14;" parent="1" vertex="1">
                    <mxGeometry x="140" y="670" width="80" height="80" as="geometry"/>
                </mxCell>
                <mxCell id="20" style="edgeStyle=none;html=1;exitX=0.5;exitY=1;exitDx=0;exitDy=0;entryX=0.5;entryY=0;entryDx=0;entryDy=0;fontSize=14;" edge="1" parent="1" source="21">
                    <mxGeometry relative="1" as="geometry">
                        <mxPoint x="180" y="1040" as="targetPoint"/>
                    </mxGeometry>
                </mxCell>
                <mxCell id="21" value="平均と二乗平均&lt;br&gt;分散，標準偏差&lt;br&gt;を求める" style="rounded=0;whiteSpace=wrap;html=1;fontSize=14;" vertex="1" parent="1">
                    <mxGeometry x="120" y="930" width="120" height="60" as="geometry"/>
                </mxCell>
                <mxCell id="22" style="edgeStyle=none;html=1;exitX=0.5;exitY=1;exitDx=0;exitDy=0;entryX=0.5;entryY=0;entryDx=0;entryDy=0;fontSize=14;" edge="1" parent="1" source="23" target="25">
                    <mxGeometry relative="1" as="geometry"/>
                </mxCell>
                <mxCell id="23" value="ファイルに出力" style="rounded=0;whiteSpace=wrap;html=1;fontSize=14;" vertex="1" parent="1">
                    <mxGeometry x="120" y="1040" width="120" height="60" as="geometry"/>
                </mxCell>
                <mxCell id="24" style="edgeStyle=none;html=1;exitX=0.5;exitY=1;exitDx=0;exitDy=0;entryX=0.5;entryY=0;entryDx=0;entryDy=0;fontSize=18;" edge="1" parent="1" source="25" target="26">
                    <mxGeometry relative="1" as="geometry"/>
                </mxCell>
                <mxCell id="25" value="fclose" style="rounded=0;whiteSpace=wrap;html=1;fontSize=18;" vertex="1" parent="1">
                    <mxGeometry x="120" y="1150" width="120" height="60" as="geometry"/>
                </mxCell>
                <mxCell id="26" value="&lt;font style=&quot;font-size: 18px;&quot;&gt;終了&lt;/font&gt;" style="rounded=1;whiteSpace=wrap;html=1;" vertex="1" parent="1">
                    <mxGeometry x="120" y="1260" width="120" height="60" as="geometry"/>
                </mxCell>
            </root>
        </mxGraphModel>
    </diagram>
</mxfile>